<svg width="32" height="32" viewBox="0 0 32 32" fill="none" xmlns="http://www.w3.org/2000/svg">
  <!-- Background circle with gradient -->
  <defs>
    <linearGradient id="bgGradient" x1="0%" y1="0%" x2="100%" y2="100%">
      <stop offset="0%" style="stop-color:#0A0A0A;stop-opacity:1" />
      <stop offset="100%" style="stop-color:#1A1A1A;stop-opacity:1" />
    </linearGradient>
    <linearGradient id="shieldGradient" x1="0%" y1="0%" x2="100%" y2="100%">
      <stop offset="0%" style="stop-color:#00FFFF;stop-opacity:1" />
      <stop offset="100%" style="stop-color:#00BFFF;stop-opacity:1" />
    </linearGradient>
    <linearGradient id="checkGradient" x1="0%" y1="0%" x2="100%" y2="100%">
      <stop offset="0%" style="stop-color:#00FF88;stop-opacity:1" />
      <stop offset="100%" style="stop-color:#00FF00;stop-opacity:1" />
    </linearGradient>
    <filter id="glow">
      <feGaussianBlur stdDeviation="2" result="coloredBlur"/>
      <feMerge> 
        <feMergeNode in="coloredBlur"/>
        <feMergeNode in="SourceGraphic"/>
      </feMerge>
    </filter>
  </defs>
  
  <!-- Background circle -->
  <circle cx="16" cy="16" r="15" fill="url(#bgGradient)" stroke="#00FFFF" stroke-width="0.5" opacity="0.8"/>
  
  <!-- Shield shape (security symbol) -->
  <path d="M16 4L22 7V13C22 18.5 16 26 16 26S10 18.5 10 13V7L16 4Z" 
        fill="url(#shieldGradient)" 
        filter="url(#glow)"
        opacity="0.9"/>
  
  <!-- Check mark (audit/verification symbol) -->
  <path d="M12 16L14.5 18.5L20 13" 
        stroke="url(#checkGradient)" 
        stroke-width="2" 
        stroke-linecap="round" 
        stroke-linejoin="round"
        filter="url(#glow)"/>
  
  <!-- Circuit pattern (tech/AI symbol) -->
  <circle cx="8" cy="8" r="1" fill="#00FFFF" opacity="0.6"/>
  <circle cx="24" cy="8" r="1" fill="#00FFFF" opacity="0.6"/>
  <circle cx="8" cy="24" r="1" fill="#00FFFF" opacity="0.6"/>
  <circle cx="24" cy="24" r="1" fill="#00FFFF" opacity="0.6"/>
  
  <!-- Connecting lines -->
  <line x1="8" y1="8" x2="12" y2="12" stroke="#00FFFF" stroke-width="0.5" opacity="0.4"/>
  <line x1="24" y1="8" x2="20" y2="12" stroke="#00FFFF" stroke-width="0.5" opacity="0.4"/>
  <line x1="8" y1="24" x2="12" y2="20" stroke="#00FFFF" stroke-width="0.5" opacity="0.4"/>
  <line x1="24" y1="24" x2="20" y2="20" stroke="#00FFFF" stroke-width="0.5" opacity="0.4"/>
</svg>
