<svg width="64" height="64" viewBox="0 0 64 64" fill="none" xmlns="http://www.w3.org/2000/svg">
  <!-- Background circle with gradient -->
  <defs>
    <linearGradient id="bgGradient" x1="0%" y1="0%" x2="100%" y2="100%">
      <stop offset="0%" style="stop-color:#0A0A0A;stop-opacity:1" />
      <stop offset="100%" style="stop-color:#1A1A1A;stop-opacity:1" />
    </linearGradient>
    <linearGradient id="shieldGradient" x1="0%" y1="0%" x2="100%" y2="100%">
      <stop offset="0%" style="stop-color:#00FFFF;stop-opacity:1" />
      <stop offset="100%" style="stop-color:#00BFFF;stop-opacity:1" />
    </linearGradient>
    <linearGradient id="checkGradient" x1="0%" y1="0%" x2="100%" y2="100%">
      <stop offset="0%" style="stop-color:#00FF88;stop-opacity:1" />
      <stop offset="100%" style="stop-color:#00FF00;stop-opacity:1" />
    </linearGradient>
    <filter id="glow">
      <feGaussianBlur stdDeviation="3" result="coloredBlur"/>
      <feMerge> 
        <feMergeNode in="coloredBlur"/>
        <feMergeNode in="SourceGraphic"/>
      </feMerge>
    </filter>
  </defs>
  
  <!-- Background circle -->
  <circle cx="32" cy="32" r="30" fill="url(#bgGradient)" stroke="#00FFFF" stroke-width="1" opacity="0.8"/>
  
  <!-- Shield shape (security symbol) -->
  <path d="M32 8L44 14V26C44 37 32 52 32 52S20 37 20 26V14L32 8Z" 
        fill="url(#shieldGradient)" 
        filter="url(#glow)"
        opacity="0.9"/>
  
  <!-- Check mark (audit/verification symbol) -->
  <path d="M24 32L29 37L40 26" 
        stroke="url(#checkGradient)" 
        stroke-width="3" 
        stroke-linecap="round" 
        stroke-linejoin="round"
        filter="url(#glow)"/>
  
  <!-- Circuit pattern (tech/AI symbol) -->
  <circle cx="16" cy="16" r="2" fill="#00FFFF" opacity="0.6"/>
  <circle cx="48" cy="16" r="2" fill="#00FFFF" opacity="0.6"/>
  <circle cx="16" cy="48" r="2" fill="#00FFFF" opacity="0.6"/>
  <circle cx="48" cy="48" r="2" fill="#00FFFF" opacity="0.6"/>
  
  <!-- Connecting lines -->
  <line x1="16" y1="16" x2="24" y2="24" stroke="#00FFFF" stroke-width="1" opacity="0.4"/>
  <line x1="48" y1="16" x2="40" y2="24" stroke="#00FFFF" stroke-width="1" opacity="0.4"/>
  <line x1="16" y1="48" x2="24" y2="40" stroke="#00FFFF" stroke-width="1" opacity="0.4"/>
  <line x1="48" y1="48" x2="40" y2="40" stroke="#00FFFF" stroke-width="1" opacity="0.4"/>
  
  <!-- Additional tech elements -->
  <rect x="28" y="12" width="8" height="2" fill="#00FFFF" opacity="0.5" rx="1"/>
  <rect x="28" y="16" width="6" height="2" fill="#00FFFF" opacity="0.5" rx="1"/>
  <rect x="28" y="20" width="4" height="2" fill="#00FFFF" opacity="0.5" rx="1"/>
</svg>
